<svg width="30" height="30" viewBox="0 0 30 30" fill="none" xmlns="http://www.w3.org/2000/svg">
<path d="M15 1.25C22.5939 1.25 28.75 7.40608 28.75 15C28.75 22.5939 22.5939 28.75 15 28.75C7.40608 28.75 1.25 22.5939 1.25 15C1.25 7.40608 7.40608 1.25 15 1.25ZM15.3125 7.5C12.9537 7.5 11.0322 9.37236 10.9531 11.7119L10.9506 11.8619V14.3881C10.9506 15.908 11.733 17.2897 12.991 18.0819L13.1327 18.1675L13.9427 18.6361C14.0199 18.6807 14.0674 18.7631 14.0675 18.8522L14.0704 20.973C14.0705 21.0654 14.0197 21.1503 13.9382 21.1938C11.6544 22.4145 9.9416 23.33 8.79972 23.9404C8.58282 24.0563 8.25747 24.2302 7.82367 24.4621C8.24384 24.7654 8.56455 24.9851 8.7858 25.1212C10.5935 26.2335 12.7218 26.875 15 26.875C17.4091 26.875 19.6507 26.1576 21.5227 24.9248C21.7269 24.7903 22.023 24.5751 22.4111 24.2791C22.0016 24.0584 21.6944 23.8929 21.4897 23.7826C20.4222 23.2073 18.821 22.3445 16.6861 21.194C16.605 21.1503 16.5545 21.0656 16.5546 20.9736L16.5575 18.8522C16.5576 18.7631 16.6051 18.6807 16.6823 18.6361L17.4923 18.1675C18.7851 17.4196 19.6136 16.0654 19.6712 14.5564L19.6744 14.3881V11.8619C19.6744 9.45288 17.7215 7.5 15.3125 7.5ZM15 3.125C8.44162 3.125 3.125 8.44162 3.125 15C3.125 17.7495 4.05941 20.2807 5.62799 22.2934C5.75715 22.4591 5.95132 22.688 6.21051 22.9801C6.2873 23.0665 6.41332 23.0891 6.51529 23.0346C6.86409 22.8482 7.13215 22.705 7.31946 22.6049C8.4027 22.026 10.0276 21.1577 12.1941 20L12.1938 19.7905C10.3297 18.712 9.07561 16.6965 9.07561 14.3881V11.8619C9.07561 8.41735 11.868 5.625 15.3125 5.625C18.757 5.625 21.5494 8.41735 21.5494 11.8619V14.3881C21.5494 16.6965 20.2953 18.712 18.4312 19.7905L18.4309 20C20.4686 21.0892 21.9968 21.9061 23.0157 22.4507C23.173 22.5348 23.396 22.654 23.6847 22.8083C23.7889 22.864 23.9178 22.8392 23.9939 22.7488C24.2558 22.4375 24.4515 22.1936 24.5809 22.0172C26.0232 20.0513 26.875 17.6251 26.875 15C26.875 8.44162 21.5584 3.125 15 3.125Z" fill="#002766"/>
</svg>
