<svg width="26" height="24" viewBox="0 0 26 24" fill="none" xmlns="http://www.w3.org/2000/svg">
<path d="M13 0.125C19.9034 0.125 25.5 5.44159 25.5 12C25.5 18.4886 20.0219 23.7617 13.2199 23.8732L13 23.875C10.8351 23.8804 8.70354 23.3437 6.80171 22.3142L3.7017 23.6566C3.12613 23.9056 2.45672 23.6431 2.20654 23.0703C2.10852 22.8458 2.08629 22.5958 2.14318 22.3577L2.9358 19.0441C1.40454 17.0734 0.5 14.6368 0.5 12C0.5 5.4416 6.09658 0.125 13 0.125ZM13 1.8214C7.02046 1.8214 2.20455 6.39612 2.20455 12C2.20455 14.1092 2.88524 16.12 4.13694 17.8125L4.2841 18.0064L4.7824 18.6477L4.06422 21.6492L6.88694 20.4278L7.61876 20.8259C9.24092 21.7074 11.0818 22.1785 13 22.1785C18.9796 22.1785 23.7955 17.6038 23.7955 11.9999C23.7955 6.3961 18.9796 1.8214 13 1.8214ZM8.15625 10.75C8.76031 10.75 9.25 11.2397 9.25 11.8438C9.25 12.4478 8.76031 12.9375 8.15625 12.9375V12.9375C7.55219 12.9375 7.0625 12.4478 7.0625 11.8438C7.0625 11.2397 7.55219 10.75 8.15625 10.75V10.75ZM18.1562 10.75C18.7603 10.75 19.25 11.2397 19.25 11.8438C19.25 12.4478 18.7603 12.9375 18.1562 12.9375V12.9375C17.5522 12.9375 17.0625 12.4478 17.0625 11.8438C17.0625 11.2397 17.5522 10.75 18.1562 10.75V10.75ZM13.1562 10.75C13.7603 10.75 14.25 11.2397 14.25 11.8438C14.25 12.4478 13.7603 12.9375 13.1562 12.9375V12.9375C12.5522 12.9375 12.0625 12.4478 12.0625 11.8438C12.0625 11.2397 12.5522 10.75 13.1562 10.75V10.75Z" fill="white"/>
</svg>
