<svg width="14" height="14" viewBox="0 0 14 14" fill="none" xmlns="http://www.w3.org/2000/svg">
<path d="M11.1762 2.07449C9.70434 0.602612 7.30746 0.602612 5.83715 2.07449L1.75902 6.14949C1.73246 6.17605 1.7184 6.21199 1.7184 6.24949C1.7184 6.28699 1.73246 6.32293 1.75902 6.34949L2.33559 6.92605C2.36194 6.95229 2.39762 6.96702 2.4348 6.96702C2.47199 6.96702 2.50767 6.95229 2.53402 6.92605L6.61215 2.85105C7.1184 2.3448 7.79184 2.06667 8.50746 2.06667C9.22309 2.06667 9.89652 2.3448 10.4012 2.85105C10.9075 3.3573 11.1856 4.03074 11.1856 4.7448C11.1856 5.46042 10.9075 6.1323 10.4012 6.63855L6.24496 10.7932L5.57152 11.4667C4.94184 12.0964 3.9184 12.0964 3.28871 11.4667C2.98402 11.162 2.81684 10.7573 2.81684 10.3261C2.81684 9.8948 2.98402 9.49011 3.28871 9.18543L7.41215 5.06355C7.51684 4.96042 7.65434 4.90261 7.80121 4.90261H7.80277C7.94965 4.90261 8.08559 4.96042 8.18871 5.06355C8.2934 5.16824 8.34965 5.30574 8.34965 5.45261C8.34965 5.59793 8.29184 5.73542 8.18871 5.83855L4.8184 9.20574C4.79184 9.2323 4.77777 9.26824 4.77777 9.30574C4.77777 9.34324 4.79184 9.37918 4.8184 9.40574L5.39496 9.9823C5.42132 10.0085 5.45699 10.0233 5.49418 10.0233C5.53137 10.0233 5.56704 10.0085 5.5934 9.9823L8.96215 6.61355C9.27309 6.30261 9.4434 5.89011 9.4434 5.45105C9.4434 5.01199 9.27152 4.59792 8.96215 4.28855C8.31996 3.64636 7.27621 3.64792 6.63402 4.28855L6.23402 4.69011L2.51215 8.41043C2.25954 8.66155 2.0593 8.96033 1.92305 9.28943C1.78679 9.61854 1.71723 9.97142 1.7184 10.3276C1.7184 11.0511 2.00121 11.7307 2.51215 12.2417C3.04184 12.7698 3.73559 13.0339 4.42934 13.0339C5.12309 13.0339 5.81684 12.7698 6.34496 12.2417L11.1762 7.41355C11.8871 6.70105 12.2809 5.75261 12.2809 4.7448C12.2825 3.73542 11.8887 2.78699 11.1762 2.07449Z" fill="black" fill-opacity="0.45"/>
</svg>
