<svg width="30" height="30" viewBox="0 0 30 30" fill="none" xmlns="http://www.w3.org/2000/svg">
<path d="M15.625 2.75V4.125C15.625 4.26307 15.5131 4.375 15.375 4.375H6.25C5.25145 4.375 4.43521 5.15558 4.37818 6.13983L4.375 6.25V23.75C4.375 24.7486 5.15558 25.5648 6.13983 25.6218L6.25 25.625H23.75C24.7486 25.625 25.5648 24.8444 25.6218 23.8602L25.625 23.75V14.625C25.625 14.4869 25.7369 14.375 25.875 14.375H27.25C27.3881 14.375 27.5 14.4869 27.5 14.625V23.75C27.5 25.8211 25.8211 27.5 23.75 27.5H6.25C4.17893 27.5 2.5 25.8211 2.5 23.75V6.25C2.5 4.17893 4.17893 2.5 6.25 2.5H15.375C15.5131 2.5 15.625 2.61193 15.625 2.75ZM26.2251 3.4624C27.4455 4.68279 27.4455 6.66143 26.2251 7.88182L17.8824 16.2245C17.8313 16.2756 17.7606 16.3021 17.6884 16.2971L13.8849 16.0348C13.7604 16.0262 13.6613 15.9271 13.6527 15.8026L13.3904 11.9991C13.3854 11.9269 13.4119 11.8562 13.463 11.8051L21.8057 3.4624C23.0261 2.24201 25.0047 2.24201 26.2251 3.4624ZM21.1094 6.81024L15.3924 12.5271C15.3413 12.5783 15.3148 12.649 15.3198 12.7211L15.426 14.2613L16.9667 14.3671C17.0388 14.3721 17.1095 14.3456 17.1606 14.2945L22.8769 8.57774L21.1094 6.81024ZM23.1999 4.72469L23.1315 4.78823L22.435 5.48399L24.2032 7.25211L24.8993 6.556C25.3652 6.09003 25.3864 5.34771 24.9628 4.85662L24.8993 4.78823C24.4333 4.32226 23.691 4.30108 23.1999 4.72469Z" fill="white"/>
</svg>
