<svg width="30" height="30" viewBox="0 0 30 30" fill="none" xmlns="http://www.w3.org/2000/svg">
<path d="M15 1.25C22.5939 1.25 28.75 7.40608 28.75 15C28.75 22.5939 22.5939 28.75 15 28.75C7.40608 28.75 1.25 22.5939 1.25 15C1.25 7.40608 7.40608 1.25 15 1.25ZM15 3.125C8.44162 3.125 3.125 8.44162 3.125 15C3.125 21.5584 8.44162 26.875 15 26.875C21.5584 26.875 26.875 21.5584 26.875 15C26.875 8.44162 21.5584 3.125 15 3.125ZM8.77863 16.5734C8.83048 16.4982 8.93346 16.4793 9.00864 16.5312C9.02729 16.544 9.0443 16.5557 9.05969 16.5661C10.7554 17.7116 12.7996 18.3805 15 18.3805C17.1998 18.3805 19.2435 17.7119 20.939 16.5669L20.9738 16.5482C20.9981 16.538 21.0243 16.5327 21.0508 16.5327C21.1612 16.5327 21.2506 16.6222 21.2506 16.7325L21.2504 18.4372C21.2504 18.5276 21.2017 18.6109 21.1229 18.6551C21.033 18.7057 20.9612 18.7454 20.9076 18.7742C19.1484 19.7193 17.1368 20.2555 15 20.2555C12.8412 20.2555 10.8102 19.7082 9.03814 18.7448C8.99709 18.7225 8.94332 18.6926 8.87683 18.6551C8.79827 18.6108 8.74966 18.5276 8.74958 18.4375L8.74939 16.6673L8.75274 16.6342C8.75717 16.6125 8.76593 16.5918 8.77863 16.5734ZM10 11.25C10.6904 11.25 11.25 11.8096 11.25 12.5C11.25 13.1904 10.6904 13.75 10 13.75C9.30964 13.75 8.75 13.1904 8.75 12.5C8.75 11.8096 9.30964 11.25 10 11.25ZM20 11.25C20.6904 11.25 21.25 11.8096 21.25 12.5C21.25 13.1904 20.6904 13.75 20 13.75C19.3096 13.75 18.75 13.1904 18.75 12.5C18.75 11.8096 19.3096 11.25 20 11.25Z" fill="white"/>
</svg>
